<svg width="44" height="44" viewBox="0 0 44 44" fill="none" xmlns="http://www.w3.org/2000/svg">
<g clip-path="url(#clip0_1348_1304)">
<path d="M38 0H6C2.68629 0 0 2.68629 0 6V38C0 41.3137 2.68629 44 6 44H38C41.3137 44 44 41.3137 44 38V6C44 2.68629 41.3137 0 38 0Z" fill="#4F46E5"/>
<path d="M13 35V10H22.8608C24.6726 10 26.1838 10.2726 27.3943 10.8179C28.6049 11.3631 29.5148 12.12 30.124 13.0884C30.7333 14.0487 31.038 15.1554 31.038 16.4087C31.038 17.3853 30.8456 18.2438 30.4608 18.9844C30.0759 19.7168 29.5468 20.319 28.8734 20.791C28.208 21.2549 27.4464 21.5845 26.5886 21.7798V22.0239C27.5266 22.0646 28.4044 22.3332 29.2222 22.8296C30.0479 23.326 30.7173 24.0218 31.2304 24.917C31.7435 25.804 32 26.862 32 28.0908C32 29.4173 31.6753 30.6014 31.0259 31.6431C30.3846 32.6766 29.4346 33.4945 28.1759 34.0967C26.9173 34.6989 25.366 35 23.5222 35H13ZM18.207 30.6787H22.4519C23.903 30.6787 24.9612 30.3979 25.6266 29.8364C26.292 29.2668 26.6247 28.5099 26.6247 27.5659C26.6247 26.8742 26.4603 26.2638 26.1316 25.7349C25.803 25.2059 25.334 24.7909 24.7247 24.4897C24.1234 24.1886 23.4059 24.0381 22.5722 24.0381H18.207V30.6787ZM18.207 20.4614H22.0671C22.7806 20.4614 23.4139 20.3353 23.9671 20.083C24.5283 19.8226 24.9692 19.4564 25.2899 18.9844C25.6186 18.5124 25.7829 17.9468 25.7829 17.2876C25.7829 16.3843 25.4662 15.6559 24.8329 15.1025C24.2076 14.5492 23.3177 14.2725 22.1633 14.2725H18.207V20.4614Z" fill="white"/>
</g>
<defs>
<clipPath id="clip0_1348_1304">
<rect width="44" height="44" fill="white"/>
</clipPath>
</defs>
</svg>
